<?xml version="1.0" standalone="no"?>
<!DOCTYPE svg PUBLIC "-//W3C//DTD SVG 20010904//EN"
 "http://www.w3.org/TR/2001/REC-SVG-20010904/DTD/svg10.dtd">
<svg version="1.0" xmlns="http://www.w3.org/2000/svg"
 width="320.000000pt" height="320.000000pt" viewBox="0 0 320.000000 320.000000"
 preserveAspectRatio="xMidYMid meet">

<g transform="translate(0.000000,320.000000) scale(0.100000,-0.100000)"
fill="#FF0000" stroke="none">
<path d="M2180 3020 c-14 -11 -40 -20 -57 -20 -18 0 -33 -4 -33 -10 0 -5 -18
-10 -40 -10 -30 0 -42 -5 -51 -21 -8 -16 -18 -20 -41 -17 -24 4 -32 0 -41 -19
-8 -17 -18 -23 -43 -23 -25 0 -38 -7 -50 -25 -11 -17 -26 -25 -43 -25 -19 0
-32 -8 -41 -25 -7 -14 -20 -25 -29 -25 -23 -1 -51 -24 -51 -43 0 -26 -11 -47
-22 -41 -5 3 -12 -3 -15 -15 -3 -12 -13 -21 -24 -21 -11 0 -19 -5 -19 -12 0
-6 -12 -36 -27 -67 -24 -49 -28 -70 -30 -160 -2 -92 -6 -112 -32 -167 -28 -61
-94 -144 -113 -144 -17 0 -133 97 -196 164 -52 56 -104 143 -126 209 -5 16
-13 12 -61 -30 l-54 -48 48 -50 c26 -27 126 -133 222 -235 l174 -185 -110 -6
c-61 -3 -100 -6 -87 -7 13 -1 32 -7 43 -12 18 -10 19 -24 19 -253 0 -133 -4
-248 -9 -255 -5 -8 -24 -18 -42 -22 -20 -5 63 -8 207 -9 l242 -1 11 75 c15
103 14 107 -14 53 -14 -25 -38 -56 -55 -68 -41 -29 -142 -45 -178 -28 -27 13
-27 15 -30 126 l-3 112 26 0 c36 0 82 -48 92 -96 6 -30 9 -5 13 106 l5 144
220 -233 c121 -128 222 -237 223 -242 2 -5 -29 -9 -70 -10 -55 0 -67 -3 -50
-9 26 -11 45 -50 173 -357 46 -112 88 -202 92 -200 5 1 36 64 69 140 34 75 64
137 67 137 4 0 101 -100 216 -222 115 -123 212 -224 217 -226 4 -2 8 41 8 96
0 71 -5 108 -16 131 -12 24 -13 36 -5 44 14 14 15 84 1 92 -6 4 -3 17 9 33 17
24 18 36 11 102 -5 41 -9 78 -10 82 0 4 -10 8 -22 10 -19 2 -24 10 -26 43 -2
22 -10 44 -18 48 -8 4 -14 15 -14 23 0 13 8 14 41 9 39 -7 40 -6 30 14 -7 12
-18 21 -26 21 -8 0 -15 6 -15 14 0 8 -10 16 -22 18 -13 2 -23 10 -23 18 0 8
10 16 23 18 17 3 22 10 22 31 0 16 -6 34 -14 40 -8 7 -17 39 -21 73 -6 48 -11
61 -27 66 -14 3 -19 11 -15 28 2 14 -2 25 -10 28 -11 4 -11 9 -2 25 11 16 7
26 -19 67 -18 26 -32 53 -32 61 0 9 -14 13 -43 13 -35 0 -49 6 -72 30 -16 17
-39 30 -51 30 -23 0 -54 33 -54 57 0 20 51 15 85 -7 39 -26 136 -28 156 -4 9
11 23 14 45 11 26 -4 33 -1 43 19 8 19 18 24 45 24 25 0 38 6 50 25 9 14 23
25 30 25 7 0 19 6 25 14 7 8 20 12 31 9 14 -4 23 2 31 20 15 32 5 72 -24 98
-12 11 -30 27 -39 36 -10 9 -18 24 -18 33 0 9 -13 29 -30 45 -16 16 -30 35
-30 42 0 7 -13 19 -28 27 -15 8 -34 26 -42 40 -10 20 -21 26 -45 26 -18 0 -38
7 -45 15 -7 8 -22 15 -33 15 -11 0 -29 8 -40 18 -13 11 -42 19 -88 22 -72 5
-90 18 -51 35 12 5 22 17 22 25 0 9 7 25 15 36 8 10 15 39 15 63 0 26 6 48 15
55 13 10 12 15 -2 44 -13 28 -14 37 -3 58 12 22 11 27 -12 52 -21 23 -24 34
-20 71 2 25 -1 53 -9 67 -10 20 -20 24 -58 24 -30 0 -55 -7 -71 -20z m-722
-1143 c46 -47 50 -68 27 -124 -19 -44 -41 -62 -77 -63 l-28 0 0 115 c0 135 8
143 78 72z m735 -865 c-13 -32 -28 -60 -32 -65 -6 -6 -121 254 -138 313 -2 8
40 -32 95 -88 l100 -104 -25 -56z"/>
<path d="M580 1943 c8 -3 27 -17 43 -31 l27 -26 0 -207 c0 -114 -4 -219 -10
-234 -5 -14 -24 -32 -42 -40 -31 -13 -27 -14 67 -13 55 0 88 3 73 5 -15 2 -37
16 -48 30 -18 24 -20 40 -20 219 0 107 3 194 8 193 4 0 88 -103 187 -230 99
-126 183 -229 188 -229 4 0 7 114 7 254 0 140 3 262 6 271 4 10 21 23 38 31
29 12 24 13 -64 13 -74 -1 -88 -3 -64 -10 52 -15 55 -24 52 -185 l-3 -147
-133 171 -133 172 -97 -1 c-53 0 -90 -3 -82 -6z"/>
<path d="M1279 1320 c18 -4 37 -14 42 -22 5 -7 9 -119 9 -249 0 -256 1 -251
-57 -269 -18 -5 22 -8 117 -9 125 0 140 2 110 12 -32 11 -35 16 -43 67 -4 30
-6 82 -5 115 3 51 6 60 23 63 16 2 40 -26 109 -128 l89 -130 86 0 86 1 -27 20
c-36 27 -184 242 -170 247 32 10 79 51 95 82 32 63 10 134 -57 184 -25 19 -43
21 -234 23 -128 1 -194 -1 -173 -7z m287 -25 c55 -23 79 -100 53 -173 -14 -40
-42 -57 -105 -66 -42 -5 -53 -3 -58 10 -8 21 -8 229 1 237 11 12 72 8 109 -8z"/>
<path d="M385 1019 c-11 -16 -2 -17 25 -2 24 12 24 13 3 13 -12 0 -25 -5 -28
-11z"/>
<path d="M415 949 c-11 -16 -2 -17 25 -2 24 12 24 13 3 13 -12 0 -25 -5 -28
-11z"/>
<path d="M440 910 c-13 -8 -13 -10 2 -10 9 0 20 5 23 10 8 13 -5 13 -25 0z"/>
<path d="M463 888 c-13 -6 -23 -15 -23 -20 0 -10 36 7 45 22 7 12 7 12 -22 -2z"/>
<path d="M475 850 c-16 -7 -17 -9 -3 -9 9 -1 20 4 23 9 7 11 7 11 -20 0z"/>
<path d="M514 806 c-3 -8 -4 -23 -2 -33 3 -11 6 -6 9 15 6 34 2 42 -7 18z"/>
<path d="M544 729 c-19 -22 -19 -22 3 -10 24 12 39 31 25 31 -5 0 -17 -10 -28
-21z"/>
<path d="M591 708 c0 -9 -4 -25 -7 -35 -5 -14 -4 -15 5 -7 7 7 11 22 8 35 -2
13 -5 16 -6 7z"/>
<path d="M630 630 c-14 -11 -20 -20 -14 -20 6 0 19 9 29 20 23 25 17 25 -15 0z"/>
<path d="M655 600 c-10 -11 -14 -20 -8 -20 5 0 18 9 28 20 10 11 14 20 8 20
-5 0 -18 -9 -28 -20z"/>
<path d="M685 580 c-10 -11 -16 -22 -13 -25 3 -3 13 4 23 15 10 11 16 22 13
25 -3 3 -13 -4 -23 -15z"/>
<path d="M722 545 c0 -16 2 -22 5 -12 2 9 2 23 0 30 -3 6 -5 -1 -5 -18z"/>
<path d="M770 505 c-7 -9 -11 -18 -8 -20 3 -3 11 1 18 10 7 9 11 18 8 20 -3 3
-11 -1 -18 -10z"/>
<path d="M2557 500 c9 -11 19 -17 21 -15 6 6 -18 35 -29 35 -5 0 -1 -9 8 -20z"/>
<path d="M800 479 c-16 -30 -8 -31 13 -3 10 13 13 24 8 24 -6 0 -15 -9 -21
-21z"/>
<path d="M2529 476 c14 -14 27 -26 29 -26 10 0 -26 44 -39 48 -8 3 -3 -7 10
-22z"/>
<path d="M826 455 c-9 -14 -12 -25 -7 -25 12 0 35 39 28 46 -2 3 -12 -7 -21
-21z"/>
<path d="M2469 452 c6 -12 16 -24 22 -28 8 -4 8 -1 0 14 -6 12 -16 24 -22 28
-8 4 -8 1 0 -14z"/>
<path d="M907 423 c-4 -3 -7 -18 -6 -32 1 -26 1 -25 10 3 9 31 7 41 -4 29z"/>
<path d="M2410 424 c0 -6 7 -19 15 -30 8 -10 14 -14 14 -9 0 6 -6 19 -14 29
-8 11 -15 15 -15 10z"/>
<path d="M942 390 c0 -19 2 -27 5 -17 2 9 2 25 0 35 -3 9 -5 1 -5 -18z"/>
<path d="M2447 409 c7 -7 15 -10 18 -7 3 3 -2 9 -12 12 -14 6 -15 5 -6 -5z"/>
<path d="M2392 388 c7 -15 15 -23 17 -17 2 6 -4 18 -13 27 -15 15 -15 15 -4
-10z"/>
<path d="M2351 374 c-1 -12 6 -25 15 -28 13 -5 14 -3 7 6 -6 7 -13 20 -16 28
-4 10 -6 8 -6 -6z"/>
<path d="M991 354 c-12 -27 -11 -28 4 -12 10 9 16 21 13 28 -2 7 -10 -1 -17
-16z"/>
<path d="M1066 335 c6 -31 11 -41 18 -34 2 2 -2 18 -10 34 l-14 30 6 -30z"/>
<path d="M2305 340 c10 -11 20 -18 23 -15 7 6 -18 35 -31 35 -5 0 -2 -9 8 -20z"/>
<path d="M2260 343 c0 -5 9 -18 20 -28 11 -10 20 -14 20 -8 0 5 -9 18 -20 28
-11 10 -20 14 -20 8z"/>
<path d="M2185 300 c4 -14 12 -29 17 -35 7 -7 8 -2 3 15 -4 14 -12 30 -17 35
-7 7 -8 2 -3 -15z"/>
<path d="M1150 293 c0 -10 5 -25 10 -33 8 -12 10 -9 10 12 0 15 -4 30 -10 33
-5 3 -10 -2 -10 -12z"/>
<path d="M1197 273 c-7 -39 -1 -40 11 -4 6 17 7 31 3 31 -5 0 -11 -12 -14 -27z"/>
<path d="M2151 290 c-1 -18 16 -46 23 -40 2 3 -2 16 -9 30 -8 15 -14 19 -14
10z"/>
<path d="M2122 259 c6 -16 12 -28 14 -26 5 5 -13 57 -20 57 -3 0 0 -14 6 -31z"/>
<path d="M1260 266 c0 -8 -3 -22 -7 -32 -4 -11 -3 -15 4 -11 13 8 23 57 12 57
-5 0 -9 -6 -9 -14z"/>
<path d="M2070 257 c0 -14 5 -29 10 -32 7 -4 8 3 4 22 -9 38 -14 42 -14 10z"/>
<path d="M2000 237 c0 -14 5 -29 10 -32 7 -4 8 3 4 22 -9 38 -14 42 -14 10z"/>
<path d="M1340 248 c0 -3 9 -15 20 -28 11 -13 20 -19 20 -13 0 5 -9 18 -20 28
-11 10 -20 16 -20 13z"/>
<path d="M1960 235 c0 -11 5 -27 10 -35 8 -12 10 -12 10 5 0 11 -5 27 -10 35
-8 12 -10 12 -10 -5z"/>
<path d="M1427 234 c-4 -4 -7 -19 -6 -33 l0 -26 10 24 c10 26 8 47 -4 35z"/>
<path d="M1460 225 c0 -8 -4 -15 -10 -15 -5 0 -7 -7 -4 -15 10 -24 19 -17 21
15 1 17 0 30 -2 30 -3 0 -5 -7 -5 -15z"/>
<path d="M1911 225 c0 -11 4 -27 9 -35 9 -13 10 -13 9 0 0 8 -4 24 -9 35 l-9
20 0 -20z"/>
<path d="M1497 224 c-4 -4 -7 -19 -6 -33 l0 -26 10 24 c10 26 8 47 -4 35z"/>
<path d="M1761 225 c0 -18 28 -61 29 -44 0 8 -7 24 -15 35 -8 10 -14 15 -14 9z"/>
<path d="M1800 218 c0 -9 7 -22 17 -29 15 -13 15 -12 3 11 -17 34 -20 36 -20
18z"/>
<path d="M1860 205 c0 -14 4 -25 9 -25 4 0 6 11 3 25 -2 14 -6 25 -8 25 -2 0
-4 -11 -4 -25z"/>
<path d="M1525 210 c-3 -5 -1 -18 4 -27 9 -16 10 -14 11 10 0 28 -5 34 -15 17z"/>
<path d="M1608 190 c-3 -17 -1 -30 4 -30 4 0 8 14 8 30 0 17 -2 30 -4 30 -2 0
-6 -13 -8 -30z"/>
<path d="M1640 190 c0 -16 5 -30 10 -30 6 0 10 14 10 30 0 17 -4 30 -10 30 -5
0 -10 -13 -10 -30z"/>
<path d="M1693 190 c3 -39 17 -39 17 0 0 17 -4 30 -10 30 -5 0 -8 -13 -7 -30z"/>
</g>
</svg>
