<svg width="539" height="516" viewBox="0 0 539 516" fill="none" xmlns="http://www.w3.org/2000/svg">
<path d="M506.5 0.5V402.237L366.128 513.621L365.789 513.891L366.007 514.265L366.728 515.5H172.179L172.76 514.22L172.921 513.864L172.616 513.621L32.5 402.238V0.5H506.5Z" fill="#00B9DF" stroke="#FF7F00"/>
<path d="M44.0404 290.14H61.1904C65.9971 290.14 69.6604 291.307 72.1804 293.64C74.7471 295.973 76.0304 299.147 76.0304 303.16C76.0304 305.96 75.3304 308.2 73.9304 309.88C72.5771 311.513 70.6171 312.703 68.0504 313.45V313.87C71.0837 314.617 73.4171 315.923 75.0504 317.79C76.7304 319.657 77.5704 322.247 77.5704 325.56C77.5704 329.667 76.2637 332.933 73.6504 335.36C71.0837 337.787 67.4671 339 62.8004 339H44.0404V290.14ZM59.5804 331.65C62.1004 331.65 63.9437 331.23 65.1104 330.39C66.2771 329.55 66.8604 328.01 66.8604 325.77V323.74C66.8604 321.5 66.2771 319.96 65.1104 319.12C63.9437 318.28 62.1004 317.86 59.5804 317.86H54.2604V331.65H59.5804ZM58.2504 310.86C60.7237 310.86 62.5204 310.463 63.6404 309.67C64.7604 308.83 65.3204 307.337 65.3204 305.19V303.09C65.3204 300.943 64.7604 299.473 63.6404 298.68C62.5204 297.887 60.7237 297.49 58.2504 297.49H54.2604V310.86H58.2504ZM111.073 339L107.993 327.24H94.623L91.613 339H80.973L94.203 290.14H109.043L122.273 339H111.073ZM101.623 300.29H101.063L96.303 318.77H106.383L101.623 300.29ZM129.036 339V290.14H139.606V330.39H160.606V339H129.036ZM190.818 298.75V339H180.318V298.75H166.248V290.14H204.888V298.75H190.818ZM233.701 318.56H221.381V339H210.811V290.14H221.381V309.95H233.701V290.14H244.271V339H233.701V318.56ZM278.964 339L275.884 327.24H262.514L259.504 339H248.864L262.094 290.14H276.934L290.164 339H278.964ZM269.514 300.29H268.954L264.194 318.77H274.274L269.514 300.29ZM310.716 339.84C306.61 339.84 303.04 339.163 300.006 337.81C296.973 336.457 294.523 334.613 292.656 332.28L298.746 325.56C300.52 327.52 302.456 328.967 304.556 329.9C306.703 330.833 308.873 331.3 311.066 331.3C313.586 331.3 315.5 330.74 316.806 329.62C318.113 328.5 318.766 326.89 318.766 324.79C318.766 323.063 318.253 321.757 317.226 320.87C316.246 319.983 314.566 319.353 312.186 318.98L307.076 318.14C302.69 317.393 299.516 315.783 297.556 313.31C295.596 310.79 294.616 307.733 294.616 304.14C294.616 299.427 296.156 295.787 299.236 293.22C302.316 290.607 306.633 289.3 312.186 289.3C315.966 289.3 319.256 289.883 322.056 291.05C324.856 292.217 327.12 293.803 328.846 295.81L322.896 302.46C321.59 301.013 320.05 299.893 318.276 299.1C316.503 298.26 314.496 297.84 312.256 297.84C307.543 297.84 305.186 299.777 305.186 303.65C305.186 305.33 305.7 306.59 306.726 307.43C307.8 308.27 309.526 308.9 311.906 309.32L317.016 310.23C320.983 310.93 324.04 312.423 326.186 314.71C328.333 316.997 329.406 320.077 329.406 323.95C329.406 326.237 329.01 328.36 328.216 330.32C327.423 332.233 326.233 333.913 324.646 335.36C323.06 336.76 321.1 337.857 318.766 338.65C316.48 339.443 313.796 339.84 310.716 339.84ZM362.909 339L359.829 327.24H346.459L343.449 339H332.809L346.039 290.14H360.879L374.109 339H362.909ZM353.459 300.29H352.899L348.139 318.77H358.219L353.459 300.29ZM390.112 339H379.752V290.14H398.652C401.032 290.14 403.155 290.513 405.022 291.26C406.888 291.96 408.452 292.987 409.712 294.34C411.018 295.693 411.998 297.327 412.652 299.24C413.305 301.153 413.632 303.3 413.632 305.68C413.632 309.133 412.885 312.097 411.392 314.57C409.898 317.043 407.775 318.677 405.022 319.47L414.612 339H403.132L394.942 320.87H390.112V339ZM396.132 312.75C398.605 312.75 400.308 312.283 401.242 311.35C402.222 310.417 402.712 308.877 402.712 306.73V304.63C402.712 302.483 402.222 300.943 401.242 300.01C400.308 299.077 398.605 298.61 396.132 298.61H390.112V312.75H396.132ZM437.404 324.72C434.791 324.72 432.901 324.16 431.734 323.04C430.614 321.873 430.054 320.497 430.054 318.91V316.46C430.054 314.873 430.614 313.52 431.734 312.4C432.901 311.233 434.791 310.65 437.404 310.65C440.018 310.65 441.884 311.233 443.004 312.4C444.171 313.52 444.754 314.873 444.754 316.46V318.91C444.754 320.497 444.171 321.873 443.004 323.04C441.884 324.16 440.018 324.72 437.404 324.72ZM497.227 339H462.087V329.41L477.487 316.6C480.147 314.313 482.06 312.33 483.227 310.65C484.394 308.97 484.977 307.197 484.977 305.33V304.63C484.977 302.577 484.37 301.037 483.157 300.01C481.944 298.937 480.31 298.4 478.257 298.4C475.924 298.4 474.127 299.077 472.867 300.43C471.607 301.783 470.72 303.393 470.207 305.26L461.037 301.76C461.597 300.08 462.367 298.493 463.347 297C464.327 295.46 465.564 294.13 467.057 293.01C468.597 291.89 470.37 291.003 472.377 290.35C474.384 289.65 476.694 289.3 479.307 289.3C481.967 289.3 484.347 289.673 486.447 290.42C488.547 291.167 490.32 292.193 491.767 293.5C493.214 294.807 494.31 296.37 495.057 298.19C495.804 299.963 496.177 301.9 496.177 304C496.177 306.053 495.827 307.943 495.127 309.67C494.474 311.35 493.54 312.937 492.327 314.43C491.16 315.923 489.76 317.37 488.127 318.77C486.54 320.17 484.837 321.57 483.017 322.97L473.707 330.18H497.227V339Z" fill="black"/>
</svg>
