<svg width="542" height="355" viewBox="0 0 542 355" fill="none" xmlns="http://www.w3.org/2000/svg">
<path d="M354.619 0.5L541.5 156.233V354.062H2.5V0.5H354.619Z" fill="#00B9DF" stroke="#FF7F00"/>
<path d="M123.729 216.84C117.196 216.84 112.343 214.647 109.169 210.26C106.043 205.827 104.479 199.597 104.479 191.57C104.479 183.543 106.043 177.337 109.169 172.95C112.343 168.517 117.196 166.3 123.729 166.3C126.249 166.3 128.466 166.65 130.379 167.35C132.339 168.003 134.019 168.937 135.419 170.15C136.819 171.363 137.963 172.833 138.849 174.56C139.783 176.287 140.506 178.223 141.019 180.37L131.219 182.75C130.939 181.583 130.613 180.51 130.239 179.53C129.866 178.55 129.376 177.71 128.769 177.01C128.209 176.31 127.486 175.773 126.599 175.4C125.759 174.98 124.733 174.77 123.519 174.77C120.673 174.77 118.643 175.89 117.429 178.13C116.263 180.323 115.679 183.38 115.679 187.3V195.84C115.679 199.76 116.263 202.84 117.429 205.08C118.643 207.273 120.673 208.37 123.519 208.37C125.946 208.37 127.696 207.623 128.769 206.13C129.889 204.637 130.706 202.723 131.219 200.39L141.019 202.77C140.506 204.917 139.783 206.853 138.849 208.58C137.963 210.307 136.819 211.8 135.419 213.06C134.019 214.273 132.339 215.207 130.379 215.86C128.466 216.513 126.249 216.84 123.729 216.84ZM174.032 216L170.952 204.24H157.582L154.572 216H143.932L157.162 167.14H172.002L185.232 216H174.032ZM164.582 177.29H164.022L159.262 195.77H169.342L164.582 177.29ZM205.785 216.84C201.678 216.84 198.108 216.163 195.075 214.81C192.041 213.457 189.591 211.613 187.725 209.28L193.815 202.56C195.588 204.52 197.525 205.967 199.625 206.9C201.771 207.833 203.941 208.3 206.135 208.3C208.655 208.3 210.568 207.74 211.875 206.62C213.181 205.5 213.835 203.89 213.835 201.79C213.835 200.063 213.321 198.757 212.295 197.87C211.315 196.983 209.635 196.353 207.255 195.98L202.145 195.14C197.758 194.393 194.585 192.783 192.625 190.31C190.665 187.79 189.685 184.733 189.685 181.14C189.685 176.427 191.225 172.787 194.305 170.22C197.385 167.607 201.701 166.3 207.255 166.3C211.035 166.3 214.325 166.883 217.125 168.05C219.925 169.217 222.188 170.803 223.915 172.81L217.965 179.46C216.658 178.013 215.118 176.893 213.345 176.1C211.571 175.26 209.565 174.84 207.325 174.84C202.611 174.84 200.255 176.777 200.255 180.65C200.255 182.33 200.768 183.59 201.795 184.43C202.868 185.27 204.595 185.9 206.975 186.32L212.085 187.23C216.051 187.93 219.108 189.423 221.255 191.71C223.401 193.997 224.475 197.077 224.475 200.95C224.475 203.237 224.078 205.36 223.285 207.32C222.491 209.233 221.301 210.913 219.715 212.36C218.128 213.76 216.168 214.857 213.835 215.65C211.548 216.443 208.865 216.84 205.785 216.84ZM232.847 216V167.14H251.747C254.127 167.14 256.251 167.513 258.117 168.26C259.984 168.96 261.547 169.987 262.807 171.34C264.114 172.693 265.094 174.327 265.747 176.24C266.401 178.153 266.727 180.3 266.727 182.68C266.727 185.06 266.401 187.207 265.747 189.12C265.094 191.033 264.114 192.667 262.807 194.02C261.547 195.373 259.984 196.423 258.117 197.17C256.251 197.87 254.127 198.22 251.747 198.22H243.417V216H232.847ZM243.417 189.75H249.087C251.561 189.75 253.264 189.283 254.197 188.35C255.177 187.417 255.667 185.877 255.667 183.73V181.63C255.667 179.483 255.177 177.943 254.197 177.01C253.264 176.077 251.561 175.61 249.087 175.61H243.417V189.75ZM275.1 216V167.14H306.32V175.75H285.6V186.95H305.62V195.56H285.6V207.39H306.32V216H275.1ZM327.153 216H316.793V167.14H335.693C338.073 167.14 340.196 167.513 342.063 168.26C343.929 168.96 345.493 169.987 346.753 171.34C348.059 172.693 349.039 174.327 349.693 176.24C350.346 178.153 350.673 180.3 350.673 182.68C350.673 186.133 349.926 189.097 348.433 191.57C346.939 194.043 344.816 195.677 342.063 196.47L351.653 216H340.173L331.983 197.87H327.153V216ZM333.173 189.75C335.646 189.75 337.349 189.283 338.283 188.35C339.263 187.417 339.753 185.877 339.753 183.73V181.63C339.753 179.483 339.263 177.943 338.283 177.01C337.349 176.077 335.646 175.61 333.173 175.61H327.153V189.75H333.173ZM374.445 201.72C371.832 201.72 369.942 201.16 368.775 200.04C367.655 198.873 367.095 197.497 367.095 195.91V193.46C367.095 191.873 367.655 190.52 368.775 189.4C369.942 188.233 371.832 187.65 374.445 187.65C377.059 187.65 378.925 188.233 380.045 189.4C381.212 190.52 381.795 191.873 381.795 193.46V195.91C381.795 197.497 381.212 198.873 380.045 200.04C378.925 201.16 377.059 201.72 374.445 201.72ZM414.528 186.46C417.235 186.46 419.195 185.947 420.408 184.92C421.668 183.893 422.298 182.633 422.298 181.14V180.65C422.298 178.877 421.691 177.477 420.478 176.45C419.311 175.377 417.631 174.84 415.438 174.84C413.431 174.84 411.541 175.353 409.768 176.38C408.041 177.36 406.571 178.783 405.358 180.65L398.708 174.49C399.641 173.277 400.668 172.18 401.788 171.2C402.908 170.173 404.145 169.31 405.498 168.61C406.851 167.863 408.368 167.303 410.048 166.93C411.775 166.51 413.711 166.3 415.858 166.3C418.518 166.3 420.921 166.603 423.068 167.21C425.215 167.817 427.035 168.703 428.528 169.87C430.068 170.99 431.258 172.343 432.098 173.93C432.938 175.517 433.358 177.29 433.358 179.25C433.358 180.79 433.101 182.19 432.588 183.45C432.075 184.71 431.375 185.807 430.488 186.74C429.648 187.673 428.645 188.443 427.478 189.05C426.358 189.61 425.145 190.007 423.838 190.24V190.66C426.825 191.173 429.298 192.433 431.258 194.44C433.265 196.4 434.268 199.06 434.268 202.42C434.268 204.613 433.801 206.597 432.868 208.37C431.981 210.143 430.698 211.66 429.018 212.92C427.385 214.18 425.378 215.16 422.998 215.86C420.665 216.513 418.051 216.84 415.158 216.84C412.685 216.84 410.491 216.583 408.578 216.07C406.711 215.557 405.055 214.88 403.608 214.04C402.161 213.153 400.901 212.15 399.828 211.03C398.801 209.863 397.891 208.673 397.098 207.46L404.868 201.44C405.941 203.447 407.271 205.103 408.858 206.41C410.491 207.67 412.661 208.3 415.368 208.3C417.888 208.3 419.825 207.717 421.178 206.55C422.531 205.383 423.208 203.773 423.208 201.72V201.23C423.208 199.223 422.438 197.73 420.898 196.75C419.358 195.723 417.211 195.21 414.458 195.21H409.908V186.46H414.528Z" fill="black"/>
</svg>
