<svg width="540" height="355" viewBox="0 0 540 355" fill="none" xmlns="http://www.w3.org/2000/svg">
<path d="M187.381 0.5L0.5 156.233V354.062H539.5V0.5H187.381Z" fill="#00B9DF" stroke="#FF7F00"/>
<path d="M89.8067 194.23L90.3667 180.58H89.7367L80.6367 205.71L71.5367 180.58H70.9067L71.4667 194.23V216H62.3667V167.14H74.7567L80.7767 183.59H81.3367L87.3567 167.14H98.9067V216H89.8067V194.23ZM107.209 216V167.14H138.429V175.75H117.709V186.95H137.729V195.56H117.709V207.39H138.429V216H107.209ZM150.022 216V167.14H160.592V207.39H181.592V216H150.022ZM207.675 216.84C201.141 216.84 196.288 214.647 193.115 210.26C189.988 205.827 188.425 199.597 188.425 191.57C188.425 183.543 189.988 177.337 193.115 172.95C196.288 168.517 201.141 166.3 207.675 166.3C210.195 166.3 212.411 166.65 214.325 167.35C216.285 168.003 217.965 168.937 219.365 170.15C220.765 171.363 221.908 172.833 222.795 174.56C223.728 176.287 224.451 178.223 224.965 180.37L215.165 182.75C214.885 181.583 214.558 180.51 214.185 179.53C213.811 178.55 213.321 177.71 212.715 177.01C212.155 176.31 211.431 175.773 210.545 175.4C209.705 174.98 208.678 174.77 207.465 174.77C204.618 174.77 202.588 175.89 201.375 178.13C200.208 180.323 199.625 183.38 199.625 187.3V195.84C199.625 199.76 200.208 202.84 201.375 205.08C202.588 207.273 204.618 208.37 207.465 208.37C209.891 208.37 211.641 207.623 212.715 206.13C213.835 204.637 214.651 202.723 215.165 200.39L224.965 202.77C224.451 204.917 223.728 206.853 222.795 208.58C221.908 210.307 220.765 211.8 219.365 213.06C217.965 214.273 216.285 215.207 214.325 215.86C212.411 216.513 210.195 216.84 207.675 216.84ZM254.687 195.56H242.367V216H231.797V167.14H242.367V186.95H254.687V167.14H265.257V216H254.687V195.56ZM274.75 216V208.23H285.25V174.91H274.75V167.14H306.25V174.91H295.75V208.23H306.25V216H274.75ZM332.473 216.84C325.939 216.84 321.109 214.623 317.983 210.19C314.903 205.757 313.363 199.55 313.363 191.57C313.363 183.59 314.903 177.383 317.983 172.95C321.109 168.517 325.939 166.3 332.473 166.3C339.006 166.3 343.813 168.517 346.893 172.95C350.019 177.383 351.583 183.59 351.583 191.57C351.583 199.55 350.019 205.757 346.893 210.19C343.813 214.623 339.006 216.84 332.473 216.84ZM332.473 208.37C335.459 208.37 337.513 207.273 338.633 205.08C339.799 202.84 340.383 199.737 340.383 195.77V187.3C340.383 183.38 339.799 180.323 338.633 178.13C337.513 175.89 335.459 174.77 332.473 174.77C329.486 174.77 327.409 175.89 326.243 178.13C325.123 180.323 324.563 183.38 324.563 187.3V195.84C324.563 199.76 325.123 202.84 326.243 205.08C327.409 207.273 329.486 208.37 332.473 208.37ZM369.125 216H358.765V167.14H377.665C380.045 167.14 382.169 167.513 384.035 168.26C385.902 168.96 387.465 169.987 388.725 171.34C390.032 172.693 391.012 174.327 391.665 176.24C392.319 178.153 392.645 180.3 392.645 182.68C392.645 186.133 391.899 189.097 390.405 191.57C388.912 194.043 386.789 195.677 384.035 196.47L393.625 216H382.145L373.955 197.87H369.125V216ZM375.145 189.75C377.619 189.75 379.322 189.283 380.255 188.35C381.235 187.417 381.725 185.877 381.725 183.73V181.63C381.725 179.483 381.235 177.943 380.255 177.01C379.322 176.077 377.619 175.61 375.145 175.61H369.125V189.75H375.145ZM416.418 201.72C413.805 201.72 411.915 201.16 410.748 200.04C409.628 198.873 409.068 197.497 409.068 195.91V193.46C409.068 191.873 409.628 190.52 410.748 189.4C411.915 188.233 413.805 187.65 416.418 187.65C419.031 187.65 420.898 188.233 422.018 189.4C423.185 190.52 423.768 191.873 423.768 193.46V195.91C423.768 197.497 423.185 198.873 422.018 200.04C420.898 201.16 419.031 201.72 416.418 201.72ZM443.971 216V207.53H457.131V174.77H456.501L446.561 187.79L439.841 182.54L451.531 167.14H467.631V207.53H477.991V216H443.971Z" fill="black"/>
</svg>
